# xmcd CD database file generated by Grip 3.3.0
# 
# Track frame offsets:
#       150
#       15842
#       28487
#       44275
#       60540
#       73617
#       84997
#       107065
#       121705
#       136222
#       148347
#       171755
#       183992
#       204727
# 
# Disc length: 2922 seconds
# 
# Revision: 3
# Processed by: cddbd v1.5.1PL0 Copyright (c) Steve Scherf et al.
# Submitted via: Grip 3.3.0
# 
DISCID=c00b680e
DTITLE=Aretha Franklin - Aretha Sings the Blues
DYEAR=1985
DGENRE=Blues
TTITLE0=Drinking Again
TTITLE1=Today I Sing the Blues
TTITLE2=What a Difference a Day Made
TTITLE3=Without the One You Love
TTITLE4=Trouble in Mind
TTITLE5=Muddy Water
TTITLE6=Only the Lonely
TTITLE7=I Wonder (Where Are You Tonight)
TTITLE8=Laughing on the Outside (Crying on the Inside)
TTITLE9=Take a Look
TTITLE10=Nobody Knows the Way I Feel This Morning
TTITLE11=Evil Gal Blues
TTITLE12=This Bitter Earth
TTITLE13=Maybe I'm a Fool
EXTD=
EXTT0=
EXTT1=
EXTT2=
EXTT3=
EXTT4=
EXTT5=
EXTT6=
EXTT7=
EXTT8=
EXTT9=
EXTT10=
EXTT11=
EXTT12=
EXTT13=
PLAYORDER=
